<svg id="color" enable-background="new 0 0 24 24" height="512" viewBox="0 0 24 24" width="512" xmlns="http://www.w3.org/2000/svg"><path d="m21.25 0h-18.5c-1.517 0-2.75 1.233-2.75 2.75v18.5c0 1.517 1.233 2.75 2.75 2.75h18.5c1.517 0 2.75-1.233 2.75-2.75v-18.5c0-1.517-1.233-2.75-2.75-2.75z" fill="#2196f3"/><path d="m12 0h-9.25c-1.517 0-2.75 1.233-2.75 2.75v18.5c0 1.517 1.233 2.75 2.75 2.75h9.25z" fill="#1d83d4"/><path d="m7.707 11.293c.391.391.391 1.023 0 1.414-.195.195-.451.293-.707.293s-.512-.098-.707-.293l-2-2c-.391-.391-.391-1.023 0-1.414l2-2c.391-.391 1.023-.391 1.414 0s.391 1.023 0 1.414l-1.293 1.293z" fill="#fff"/><path d="m19.707 10.707-2 2c-.195.195-.451.293-.707.293s-.512-.098-.707-.293c-.391-.391-.391-1.023 0-1.414l1.293-1.293-1.293-1.293c-.391-.391-.391-1.023 0-1.414s1.023-.391 1.414 0l2 2c.391.391.391 1.023 0 1.414z" fill="#fff"/><path d="m6.414 10h-2.414c0 .256.098.512.293.707l2 2c.195.195.451.293.707.293s.512-.098.707-.293c.391-.391.391-1.023 0-1.414z" fill="#dedede"/><path d="m20 10h-2.414l-1.293 1.293c-.391.391-.391 1.023 0 1.414.195.195.451.293.707.293s.512-.098.707-.293l2-2c.195-.195.293-.451.293-.707z" fill="#dedede"/><g fill="#fff"><path d="m6.5 20c-.828 0-1.5-.671-1.5-1.5s.672-1.5 1.5-1.5 1.5.671 1.5 1.5-.672 1.5-1.5 1.5z"/><path d="m12 20c-.828 0-1.5-.671-1.5-1.5s.672-1.5 1.5-1.5 1.5.671 1.5 1.5-.672 1.5-1.5 1.5z"/><path d="m17.5 20c-.828 0-1.5-.671-1.5-1.5s.672-1.5 1.5-1.5 1.5.671 1.5 1.5-.672 1.5-1.5 1.5z"/></g><path d="m8 18.5h-3c0 .829.672 1.5 1.5 1.5s1.5-.671 1.5-1.5z" fill="#dedede"/><path d="m13.5 18.5h-3c0 .829.672 1.5 1.5 1.5s1.5-.671 1.5-1.5z" fill="#dedede"/><path d="m19 18.5h-3c0 .829.672 1.5 1.5 1.5s1.5-.671 1.5-1.5z" fill="#dedede"/></svg>