<svg id="filled_outline" height="512" viewBox="0 0 512 512" width="512" xmlns="http://www.w3.org/2000/svg" data-name="filled outline"><path d="m312 24h32v56h-32z" fill="#8098ab"/><path d="m432 24h32v56h-32z" fill="#8098ab" transform="matrix(-1 0 0 -1 896 104)"/><path d="m344 40h88v24h-88z" fill="#62798c"/><path d="m48 24h32v56h-32z" fill="#8098ab"/><path d="m168 24h32v56h-32z" fill="#8098ab" transform="matrix(-1 0 0 -1 368 104)"/><path d="m80 40h88v24h-88z" fill="#62798c"/><path d="m408 72-28.12012 70.29a31.97194 31.97194 0 0 1 -12.75 15.25l-21.84988 13.66-33.28 20.8v48l13.27 86.24 18.73 121.76-32 24-40.65991-127.78-15.34009-48.22-15.83008 49.77-40.16992 126.23-32-24 18.76-121.92993 13.24-86.07007v-48l-33.28-20.8-21.84985-13.66a31.97194 31.97194 0 0 1 -12.75-15.25l-28.12015-70.29 8-32h32v40l24 40 17.45 4.36 70.55 17.64 70.55005-17.64 17.44995-4.36 24-40v-40h32z" fill="#ffceb6"/><path d="m325.27 326.24-53.93 17.98-15.34-48.22-15.83 49.77-53.41-19.7 13.24-86.07h112z" fill="#ffb401"/><path d="m168 448 32 24v16h-72v-16z" fill="#d1e4ff"/><path d="m312 472v16h72v-16l-40-24z" fill="#d1e4ff"/><path d="m345.28 171.2-33.28 20.8v48h-112v-48l-33.28-20.8 18.73-46.84 70.55 17.64 70.55-17.64z" fill="#548aff"/><path d="m232 104h48a0 0 0 0 1 0 0v24a24 24 0 0 1 -24 24 24 24 0 0 1 -24-24v-24a0 0 0 0 1 0 0z" fill="#ffceb6"/><path d="m232 104v-16l19.359-12.906a18.42223 18.42223 0 0 1 10.21879-3.094 18.42218 18.42218 0 0 1 18.42221 18.42219v13.57781z" fill="#c78640"/><path d="m80 16h-32a8.00008 8.00008 0 0 0 -8 8v56a8.00008 8.00008 0 0 0 8 8h32a8.00008 8.00008 0 0 0 8-8v-8h8.02393a7.972 7.972 0 0 0 .54834 2.97119l28.11621 70.291a39.746 39.746 0 0 0 15.93852 19.06447l51.373 32.10742v42.9541l-31.33594 203.68409-36.78027 22.06787a8.00072 8.00072 0 0 0 -3.88379 6.85986v16a8.00008 8.00008 0 0 0 8 8h72a8.00008 8.00008 0 0 0 8-8v-14.75781l48-150.85742 48 150.85742v14.75781a8.00008 8.00008 0 0 0 8 8h72a8.00008 8.00008 0 0 0 8-8v-16a8.00072 8.00072 0 0 0 -3.88379-6.85986l-36.78027-22.06787-31.33594-203.68409v-42.9541l51.373-32.10791a39.74259 39.74259 0 0 0 15.93847-19.064l28.11621-70.291a7.972 7.972 0 0 0 .54839-2.97117h8.02393v8a8.00008 8.00008 0 0 0 8 8h32a8.00008 8.00008 0 0 0 8-8v-56a8.00008 8.00008 0 0 0 -8-8h-32a8.00008 8.00008 0 0 0 -8 8v8h-72v-8a8.00008 8.00008 0 0 0 -8-8h-32a8.00008 8.00008 0 0 0 -8 8v56a8.00008 8.00008 0 0 0 8 8h32a8.00008 8.00008 0 0 0 8-8v-8h8v5.78418l-21.15527 35.2583-50.84473 12.71118v-35.3313a26.42138 26.42138 0 0 0 -41.07812-21.98436l-19.35938 12.90575a7.99943 7.99943 0 0 0 -3.5625 6.65625v37.75366l-50.84473-12.71118-21.15527-35.2583v-5.78418h8v8a8.00008 8.00008 0 0 0 8 8h32a8.00008 8.00008 0 0 0 8-8v-56a8.00008 8.00008 0 0 0 -8-8h-32a8.00008 8.00008 0 0 0 -8 8v8h-72v-8a8.00008 8.00008 0 0 0 -8-8zm-8 56h-16v-40h16zm368-40h16v40h-16zm-104 40h-16v-40h16zm-160-40h16v40h-16zm-40 448v-3.4707l31.50342-18.90186 24.49658 18.37232v4.00024zm59.79126-21.15625-19.155-14.36621 16.561-107.64575 37.44458 12.48156zm60.20874-170.84375a7.99922 7.99922 0 0 0 -7.62305 5.57422l-12.8833 40.49084-39.82837-13.276 11.19825-72.78906h98.27294l11.19825 72.78906-39.82837 13.276-12.8833-40.49084a7.99922 7.99922 0 0 0 -7.62305-5.57422zm25.35815 61.31335 37.44458-12.48156 16.561 107.64575-19.155 14.36621zm94.64185 127.21595v3.4707h-56v-4.00024l24.49658-18.37232zm-68.24023-291.31348a8.00055 8.00055 0 0 0 -3.75977 6.78418v40h-96v-40a8.00055 8.00055 0 0 0 -3.75977-6.78418l-27.60839-17.25476 13.657-34.14252 37.56323 9.39075a31.989 31.989 0 0 0 56.2959 0l37.56323-9.39075 13.657 34.14228zm-67.75977-57.21582v-16h32v16a16 16 0 0 1 -32 0zm184-72h-11.75415l-2-8h13.75415zm-72 0v-8h8v8zm-6.05957 71.76123a8.00053 8.00053 0 0 0 4.91992-3.645l24-40a8.01038 8.01038 0 0 0 1.13965-4.11623v-32h17.75391l5.85742 23.43066-27.15528 67.88916a23.84557 23.84557 0 0 1 -9.56347 11.43848l-13.73853 8.58643-11.77705-29.44263zm-90.14258-46.01123a10.42171 10.42171 0 0 1 16.20215 8.67236v5.57764h-32v-3.71826zm-95.79785-25.75h-8v-8h8zm-41.75391-8h17.75391v32a8.01038 8.01038 0 0 0 1.13965 4.11621l24 40a8.00053 8.00053 0 0 0 4.91992 3.645l8.56348 2.14087-11.77735 29.44292-13.73828-8.58624a23.849 23.849 0 0 1 -9.56347-11.439l-27.15528-67.8891zm-16.49194 0-2 8h-11.75415v-8z"/></svg>