<?xml version="1.0"?>
<svg xmlns="http://www.w3.org/2000/svg" id="filled_outline" data-name="filled outline" viewBox="0 0 512 512" width="512" height="512"><rect x="40" y="160" width="456" height="32" style="fill:#8098ab"/><polygon points="448 352 472 312 488 312 488 400 464 400 448 352" style="fill:#e0edff"/><path d="M310.3999,283.2,280,344l-79.87988-24.31006L96,288a40.00174,40.00174,0,0,1-40-40V192h72l102.66992,51.33Z" style="fill:#548aff"/><path d="M32,200l32-32,17.37259,17.37259a22.6274,22.6274,0,0,1,6.62741,16v0A22.62739,22.62739,0,0,1,65.37261,224h0a22.6274,22.6274,0,0,1-16-6.62741Z" style="fill:#ffceb6"/><path d="M32,200l-8-8V160l2.34315-2.34315A19.31369,19.31369,0,0,1,40,152h0a19.31369,19.31369,0,0,1,13.65684,5.65685L64,168Z" style="fill:#c78640"/><path d="M128,232h24l38.94045-84.371A33.7883,33.7883,0,0,1,221.61885,128h0a33.78831,33.78831,0,0,1,32.77947,25.59343L256,160H232L193.73315,262.04494A40,40,0,0,1,156.28,288H128Z" style="fill:#ffceb6"/><polygon points="310.4 283.2 280 344 200.12 319.69 230.67 243.33 310.4 283.2" style="fill:#ffb401"/><polygon points="464 400 280 344 310.4 283.2 448 352 464 400" style="fill:#ffceb6"/><path d="M262.15918,151.65283a41.78823,41.78823,0,0,0-78.48242-7.37646L180.11182,152H59.31445a27.31491,27.31491,0,0,0-38.6289.00049l-2.34278,2.34326A7.99922,7.99922,0,0,0,16,160v32a8.00035,8.00035,0,0,0,2.34277,5.65674l8,8L43.71582,223.0293A30.96421,30.96421,0,0,0,48,226.5968V248a48.04716,48.04716,0,0,0,46.70166,47.967L461.6709,407.65332A7.99306,7.99306,0,0,0,464,408h24a8.00008,8.00008,0,0,0,8-8V312a8.00008,8.00008,0,0,0-8-8H472a8.00091,8.00091,0,0,0-6.86035,3.88428l-20.16309,33.606L216.09326,225.20166,225.544,200H496V184H231.544l6-16H496V152H262.24609ZM165.34253,184H90.59717a30.96815,30.96815,0,0,0-3.5669-4.28418L75.31421,168h97.41308ZM40,160a11.239,11.239,0,0,1,8,3.31348l4.686,4.6864L32,188.686V163.31348A11.239,11.239,0,0,1,40,160Zm3.31348,40L64,179.31348,75.71582,191.0293a14.62724,14.62724,0,1,1-20.68555,20.68652ZM64,248V231.96655c.45605.02.91357.03345,1.37305.03345A30.66183,30.66183,0,0,0,96,201.37256c0-.45935-.01343-.91651-.03345-1.37256h30.23023l26.05,12.37378L146.88086,224H104v16h16v40H96A32.03635,32.03635,0,0,1,64,248ZM451.5127,387.83716,291.3916,339.10474,314.397,293.094l127.05152,64.551ZM275.86621,334.37964,210.78711,314.573l24.64038-61.60108,64.70508,32.87476ZM476.5293,320H480v72H469.76636l-13.01294-39.03906ZM221.10571,245.69543l-25.68091,64.202L149.76147,296h6.5188a48.22127,48.22127,0,0,0,44.94336-31.146l9.21656-24.57739ZM232,152a7.999,7.999,0,0,0-7.49023,5.19092L186.24316,259.23584A32.14806,32.14806,0,0,1,156.28027,280H136V240h16a8.00055,8.00055,0,0,0,7.26367-4.64746l38.94043-84.37109A25.79075,25.79075,0,0,1,245.48047,152Z"/></svg>
