<svg height="511pt" viewBox="0 -36 511.99986 511" width="511pt" xmlns="http://www.w3.org/2000/svg"><path d="m248.9375 45.1875c15.332031-15.269531 37.042969-20.289062 56.582031-15.09375 5.214844 19.460938.175781 41.082031-15.15625 56.347656-15.328125 15.269532-37.039062 20.289063-56.578125 15.097656v-30.175781c2.558594-9.589843 7.601563-18.652343 15.152344-26.175781zm0 0" fill="#00973c"/><path d="m263.074219 51.019531c0-27.902343-13.113281-50.519531-29.289063-50.519531-16.179687 0-29.292968 22.617188-29.292968 50.519531 0 27.898438 13.113281 50.519531 29.292968 50.519531 16.175782 0 29.289063-22.621093 29.289063-50.519531zm0 0" fill="#28d05b"/><path d="m440.542969 376.09375c-.207031-.53125-.425781-1.0625-.652344-1.59375h-367.78125c-.226563.53125-.445313 1.0625-.652344 1.59375-12.058593 30.886719 11.453125 64.148438 44.613281 64.148438h279.863282c33.15625 0 56.667968-33.261719 44.609375-64.148438zm0 0" fill="#ff983b"/><path d="m439.890625 374.5h-33.144531l5.007812 12.832031c2.582032 6.613281-.003906 11.953125-1.777344 14.546875-1.53125 2.242188-5.964843 7.457032-14.042968 7.457032h-324.632813c6.695313 17.59375 23.796875 30.902343 44.769531 30.902343h279.863282c33.15625 0 56.667968-33.257812 44.609375-64.144531-.207031-.53125-.425781-1.0625-.652344-1.59375zm0 0" fill="#ff7e40"/><path d="m34.515625 294.644531v45.152344c0 25.601563 20.753906 46.359375 46.355469 46.359375h350.261718c25.601563 0 46.355469-20.757812 46.355469-46.359375v-45.152344zm0 0" fill="#00973c"/><path d="m487.902344 259.179688c-11.738282-.058594-23.46875 2.820312-34.269532 7.878906h-395.234374c-12.402344-5.808594-24.894532-8.25-36.53125-7.835938-17.761719.511719-27.839844 17.089844-18.03125 33.066406 15.332031 25.167969 48.820312 41.488282 77.988281 36.441407 18.425781-3.082031 37.703125 5.433593 46.535156 18.578125 20.042969 30.210937 71.242187 40.191406 102.71875 19.246094 14.304687-9.417969 35.546875-9.433594 49.871094 0 31.492187 20.957031 82.691406 10.945312 102.71875-19.246094 9.535156-14.191406 29.464843-21.433594 46.535156-18.578125 29.085937 5.03125 62.628906-11.214844 77.988281-36.441407.050782-.085937.101563-.167968.152344-.253906 9.011719-15.160156 1.046875-32.734375-20.441406-32.855468zm0 0" fill="#28d05b"/><path d="m249.308594 285.960938c0-20.898438-35.953125-37.84375-80.300782-37.84375-44.347656 0-80.300781 16.945312-80.300781 37.84375 0 20.902343 35.953125 37.84375 80.300781 37.84375 44.347657 0 80.300782-16.941407 80.300782-37.84375zm0 0" fill="#ff5368"/><path d="m423.292969 285.960938c0-20.898438-35.953125-37.84375-80.300781-37.84375-44.347657 0-80.300782 16.945312-80.300782 37.84375 0 20.902343 35.953125 37.84375 80.300782 37.84375 44.347656 0 80.300781-16.941407 80.300781-37.84375zm0 0" fill="#ff5368"/><path d="m457.980469 220.929688c-18.300781-38.007813-49.089844-69.867188-87.625-91.25-33.34375-18.5-72.488281-29.152344-114.355469-29.152344-90.257812 0-167.847656 49.507812-201.980469 120.402344-14.605469 30.335937 7.695313 64.441406 41.179688 64.441406h321.601562c33.558594 0 55.75-34.179688 41.179688-64.441406zm0 0" fill="#ff983b"/><path d="m427.089844 220.929688c-32.164063-66.808594-102.914063-114.613282-186.480469-119.910157 5.085937-.320312 10.214844-.492187 15.390625-.492187 41.871094 0 81.011719 10.652344 114.355469 29.152344 38.535156 21.382812 69.324219 53.242187 87.625 91.25 2.75 5.714843 4.1875 11.570312 4.488281 17.308593 1.289062 24.644531-18.449219 47.132813-45.667969 47.132813h-321.601562c-21.003907 0-37.597657-13.414063-43.457031-30.902344h365.058593c7.621094 0 11.429688-4.753906 12.714844-6.800781 4.765625-7.574219 1.457031-18.675781-2.425781-26.738281zm0 0" fill="#ff7e40"/><g fill="#ffcf5d"><path d="m208.046875 207.980469c0 4.269531-3.457031 7.726562-7.726563 7.726562-4.265624 0-7.726562-3.457031-7.726562-7.726562 0-4.265625 3.460938-7.726563 7.726562-7.726563 4.269532 0 7.726563 3.460938 7.726563 7.726563zm0 0"/><path d="m269.859375 177.070312c0 4.269532-3.457031 7.726563-7.722656 7.726563-4.269531 0-7.726563-3.457031-7.726563-7.726563 0-4.265624 3.457032-7.726562 7.726563-7.726562 4.265625 0 7.722656 3.460938 7.722656 7.726562zm0 0"/><path d="m311.066406 218.28125c0 4.265625-3.460937 7.726562-7.726562 7.726562-4.269532 0-7.726563-3.460937-7.726563-7.726562s3.457031-7.726562 7.726563-7.726562c4.265625 0 7.726562 3.460937 7.726562 7.726562zm0 0"/><path d="m318.277344 146.171875c0 4.265625-3.457032 7.726563-7.726563 7.726563-4.265625 0-7.726562-3.460938-7.726562-7.726563 0-4.269531 3.460937-7.726563 7.726562-7.726563 4.269531 0 7.726563 3.457032 7.726563 7.726563zm0 0"/><path d="m394.511719 197.679688c0 4.265624-3.460938 7.726562-7.726563 7.726562-4.269531 0-7.726562-3.460938-7.726562-7.726562 0-4.265626 3.457031-7.726563 7.726562-7.726563 4.265625 0 7.726563 3.460937 7.726563 7.726563zm0 0"/><path d="m147.269531 177.074219c0 4.265625-3.457031 7.726562-7.726562 7.726562-4.265625 0-7.726563-3.460937-7.726563-7.726562 0-4.269531 3.460938-7.726563 7.726563-7.726563 4.269531 0 7.726562 3.457032 7.726562 7.726563zm0 0"/><path d="m209.078125 135.867188c0 4.269531-3.457031 7.726562-7.726563 7.726562-4.265624 0-7.726562-3.457031-7.726562-7.726562 0-4.265626 3.460938-7.726563 7.726562-7.726563 4.269532 0 7.726563 3.460937 7.726563 7.726563zm0 0"/></g></svg>